<?xml version="1.0" encoding="UTF-8"?>
<svg xmlns="http://www.w3.org/2000/svg" xmlns:xlink="http://www.w3.org/1999/xlink" viewBox="0 0 48 48" width="48px" height="48px">
<g id="surface128148">
<path style=" stroke:none;fill-rule:nonzero;fill:rgb(0%,100%,0%);fill-opacity:1;" d="M 24 42.480469 C 13.792969 42.480469 5.519531 34.207031 5.519531 24 C 5.519531 13.792969 13.792969 5.519531 24 5.519531 C 34.207031 5.519531 42.480469 13.792969 42.480469 24 C 42.480469 34.207031 34.207031 42.480469 24 42.480469 Z M 24 42.480469 "/>
<path style=" stroke:none;fill-rule:nonzero;fill:rgb(0%,100%,0%);fill-opacity:1;" d="M 15.199219 38.398438 L 32.800781 38.398438 C 35.894531 38.398438 38.398438 35.894531 38.398438 32.800781 L 38.398438 15.199219 C 38.398438 12.105469 35.894531 9.601562 32.800781 9.601562 L 15.199219 9.601562 C 12.105469 9.601562 9.601562 12.105469 9.601562 15.199219 L 9.601562 32.800781 C 9.601562 35.894531 12.105469 38.398438 15.199219 38.398438 Z M 15.199219 38.398438 "/>
<path style=" stroke:none;fill-rule:nonzero;fill:rgb(100%,100%,100%);fill-opacity:1;" d="M 33.160156 29.632812 L 29.46875 27.191406 C 29.019531 26.917969 28.457031 26.914062 28 27.179688 C 28 27.179688 28 27.179688 26.417969 28.101562 C 26.207031 28.222656 26.003906 28.246094 25.839844 28.21875 C 25.628906 28.179688 25.484375 28.0625 25.476562 28.054688 C 24.605469 27.417969 23.589844 26.574219 22.507812 25.492188 C 21.425781 24.410156 20.578125 23.394531 19.941406 22.523438 C 19.933594 22.511719 19.820312 22.367188 19.78125 22.160156 C 19.753906 21.996094 19.773438 21.792969 19.898438 21.578125 C 20.820312 19.996094 20.820312 19.996094 20.820312 19.996094 C 21.085938 19.542969 21.078125 18.976562 20.804688 18.527344 L 18.367188 14.839844 C 18.0625 14.382812 17.445312 14.261719 16.996094 14.574219 C 16.996094 14.574219 15.839844 15.363281 15.457031 15.632812 C 14.84375 16.0625 14.648438 16.71875 14.648438 17.628906 C 14.644531 18.914062 15.753906 22.933594 20.410156 27.589844 C 25.066406 32.246094 29.085938 33.351562 30.367188 33.351562 C 31.28125 33.347656 31.933594 33.152344 32.367188 32.542969 C 32.632812 32.160156 33.425781 31.003906 33.425781 31.003906 C 33.738281 30.554688 33.617188 29.933594 33.160156 29.632812 Z M 33.160156 29.632812 "/>
</g>
</svg>
