<?xml version="1.0" encoding="UTF-8"?>
<svg xmlns="http://www.w3.org/2000/svg" xmlns:xlink="http://www.w3.org/1999/xlink" viewBox="0 0 24 24" width="24px" height="24px">
<g id="surface12505082">
<path style=" stroke:none;fill-rule:nonzero;fill:rgb(91.37255%,11.764706%,38.82353%);fill-opacity:1;" d="M 12.070312 24.070312 C 5.441406 24.070312 0.0703125 18.695312 0.0703125 12.070312 C 0.0703125 5.441406 5.441406 0.0703125 12.070312 0.0703125 C 18.695312 0.0703125 24.070312 5.441406 24.070312 12.070312 C 24.070312 18.695312 18.695312 24.070312 12.070312 24.070312 Z M 12.070312 24.070312 "/>
<path style=" stroke:none;fill-rule:nonzero;fill:rgb(0%,0%,0%);fill-opacity:1;" d="M 12 4 C 7.585938 4 4.011719 7.578125 4.011719 11.988281 C 4.011719 15.996094 6.960938 19.300781 10.804688 19.878906 L 10.804688 14.105469 L 8.828125 14.105469 L 8.828125 12.007812 L 10.804688 12.007812 L 10.804688 10.609375 C 10.804688 8.296875 11.933594 7.28125 13.855469 7.28125 C 14.777344 7.28125 15.265625 7.347656 15.496094 7.378906 L 15.496094 9.210938 L 14.183594 9.210938 C 13.367188 9.210938 13.082031 9.984375 13.082031 10.859375 L 13.082031 12.007812 L 15.472656 12.007812 L 15.148438 14.105469 L 13.082031 14.105469 L 13.082031 19.898438 C 16.980469 19.367188 19.988281 16.035156 19.988281 11.988281 C 19.988281 7.578125 16.414062 4 12 4 Z M 12 4 "/>
</g>
</svg>
