<?xml version="1.0" encoding="UTF-8"?>
<svg xmlns="http://www.w3.org/2000/svg" xmlns:xlink="http://www.w3.org/1999/xlink" viewBox="0 0 24 24" width="34px" height="34px">
<g id="surface12523998">
<path style=" stroke:none;fill-rule:nonzero;fill:rgb(0,0,0,0);fill-opacity:1;" d="M 12.070312 24.070312 C 5.441406 24.070312 0.0703125 18.695312 0.0703125 12.070312 C 0.0703125 5.441406 5.441406 0.0703125 12.070312 0.0703125 C 18.695312 0.0703125 24.070312 5.441406 24.070312 12.070312 C 24.070312 18.695312 18.695312 24.070312 12.070312 24.070312 Z M 12.070312 24.070312 "/>
<path style=" stroke:none;fill-rule:nonzero;fill:rgb(0%,0%,0%);fill-opacity:1;" d="M 8.800781 4.800781 C 6.589844 4.800781 4.800781 6.589844 4.800781 8.800781 L 4.800781 15.199219 C 4.800781 17.410156 6.589844 19.199219 8.800781 19.199219 L 15.199219 19.199219 C 17.410156 19.199219 19.199219 17.410156 19.199219 15.199219 L 19.199219 8.800781 C 19.199219 6.589844 17.410156 4.800781 15.199219 4.800781 Z M 16.800781 6.398438 C 17.242188 6.398438 17.601562 6.757812 17.601562 7.199219 C 17.601562 7.640625 17.242188 8 16.800781 8 C 16.359375 8 16 7.640625 16 7.199219 C 16 6.757812 16.359375 6.398438 16.800781 6.398438 Z M 12 8 C 14.207031 8 16 9.792969 16 12 C 16 14.207031 14.207031 16 12 16 C 9.792969 16 8 14.207031 8 12 C 8 9.792969 9.792969 8 12 8 Z M 12 9.601562 C 10.675781 9.601562 9.601562 10.675781 9.601562 12 C 9.601562 13.324219 10.675781 14.398438 12 14.398438 C 13.324219 14.398438 14.398438 13.324219 14.398438 12 C 14.398438 10.675781 13.324219 9.601562 12 9.601562 Z M 12 9.601562 "/>
</g>
</svg>
