<?xml version="1.0" encoding="UTF-8"?>
<svg xmlns="http://www.w3.org/2000/svg" xmlns:xlink="http://www.w3.org/1999/xlink" viewBox="0 0 24 24" width="34px" height="34px">
<g id="surface12535826">
<path style=" stroke:none;fill-rule:nonzero;fill:rgb(0,0,0,0);fill-opacity:1;" d="M 12.070312 24.070312 C 5.441406 24.070312 0.0703125 18.695312 0.0703125 12.070312 C 0.0703125 5.441406 5.441406 0.0703125 12.070312 0.0703125 C 18.695312 0.0703125 24.070312 5.441406 24.070312 12.070312 C 24.070312 18.695312 18.695312 24.070312 12.070312 24.070312 Z M 12.070312 24.070312 "/>
<path style=" stroke:none;fill-rule:nonzero;fill:rgb(0%,0%,0%);fill-opacity:1;" d="M 17.601562 4.800781 L 6.398438 4.800781 C 5.515625 4.800781 4.800781 5.515625 4.800781 6.398438 L 4.800781 17.601562 C 4.800781 18.484375 5.515625 19.199219 6.398438 19.199219 L 17.601562 19.199219 C 18.484375 19.199219 19.199219 18.484375 19.199219 17.601562 L 19.199219 6.398438 C 19.199219 5.515625 18.484375 4.800781 17.601562 4.800781 Z M 9.601562 16 L 7.582031 16 L 7.582031 10.398438 L 9.601562 10.398438 Z M 8.554688 9.375 C 7.9375 9.375 7.527344 8.960938 7.527344 8.414062 C 7.527344 7.863281 7.9375 7.453125 8.625 7.453125 C 9.238281 7.453125 9.652344 7.863281 9.652344 8.414062 C 9.652344 8.960938 9.242188 9.375 8.554688 9.375 Z M 16.800781 16 L 14.847656 16 L 14.847656 12.9375 C 14.847656 12.09375 14.324219 11.898438 14.128906 11.898438 C 13.933594 11.898438 13.285156 12.027344 13.285156 12.9375 C 13.285156 13.070312 13.285156 16 13.285156 16 L 11.265625 16 L 11.265625 10.398438 L 13.285156 10.398438 L 13.285156 11.179688 C 13.542969 10.726562 14.066406 10.398438 15.042969 10.398438 C 16.019531 10.398438 16.800781 11.179688 16.800781 12.9375 Z M 16.800781 16 "/>
</g>
</svg>
