<?xml version="1.0" encoding="UTF-8"?>
<svg xmlns="http://www.w3.org/2000/svg" xmlns:xlink="http://www.w3.org/1999/xlink" viewBox="0 0 24 24" width="24px" height="24px">
<g id="surface12537557">
<path style=" stroke:none;fill-rule:nonzero;fill:rgb(91.37255%,11.764706%,38.82353%);fill-opacity:1;" d="M 12.070312 24.070312 C 5.441406 24.070312 0.0703125 18.695312 0.0703125 12.070312 C 0.0703125 5.441406 5.441406 0.0703125 12.070312 0.0703125 C 18.695312 0.0703125 24.070312 5.441406 24.070312 12.070312 C 24.070312 18.695312 18.695312 24.070312 12.070312 24.070312 Z M 12.070312 24.070312 "/>
<path style=" stroke:none;fill-rule:nonzero;fill:rgb(0%,0%,0%);fill-opacity:1;" d="M 19.1875 7.640625 C 19.015625 6.996094 18.503906 6.484375 17.859375 6.3125 C 16.691406 6 12 6 12 6 C 12 6 7.308594 6 6.140625 6.3125 C 5.496094 6.484375 4.984375 6.996094 4.8125 7.640625 C 4.5 8.808594 4.5 12 4.5 12 C 4.5 12 4.5 15.191406 4.8125 16.359375 C 4.984375 17.003906 5.496094 17.515625 6.140625 17.6875 C 7.308594 18 12 18 12 18 C 12 18 16.691406 18 17.859375 17.6875 C 18.507812 17.515625 19.015625 17.003906 19.1875 16.359375 C 19.5 15.191406 19.5 12 19.5 12 C 19.5 12 19.5 8.808594 19.1875 7.640625 Z M 10.5 14.597656 L 10.5 9.402344 L 15 12 Z M 10.5 14.597656 "/>
</g>
</svg>
